<?xml version="1.0" encoding="utf-8"?>
<!-- Svg Vector Icons : http://www.onlinewebfonts.com/icon -->
<!DOCTYPE svg PUBLIC "-//W3C//DTD SVG 1.1//EN" "http://www.w3.org/Graphics/SVG/1.1/DTD/svg11.dtd">
<svg version="1.1" xmlns="http://www.w3.org/2000/svg" xmlns:xlink="http://www.w3.org/1999/xlink" x="0px" y="0px" viewBox="0 0 1000 1000" enable-background="new 0 0 1000 1000" xml:space="preserve">
<metadata> Svg Vector Icons : http://www.onlinewebfonts.com/icon </metadata>
<g><g><g><path d="M187,432.4l0.5,0.9l-0.5-0.1v85.3l70.6,16.7l54.3-29.9v-86.7l-72.4-13.9L187,432.4z M254.1,530.1l-63.3-14.6v-77.7l63.3,13.6V530.1z M305.5,422l-48.1,26.4l-65.3-14.1l48-25.4L305.5,422z"/><path d="M317.7,131.9c25,0.6,50.9,1.2,64.8-13.4c7.8-8.2,11-20.1,9.8-36.3l-8.3,0.6c1,13.7-1.5,23.5-7.6,29.9c-7.4,7.8-19.9,10.3-34.3,10.9c3.2-1.7,6.2-3.8,8.8-6.5c7.7-8.4,10.9-21.1,9.6-39l-8.3,0.6c1.1,15.4-1.3,26.1-7.4,32.7c-9.2,9.9-26.2,10-44.3,10.1c-19.6,0.1-39.9,0.2-52.7,13.3c-2.2,2.2-4,4.9-5.6,7.8H10v457.9h457.9V142.6H257C270,130.8,294.2,131.3,317.7,131.9z M67.4,233.9c0-23,18.6-41.6,41.6-41.6h126.8c0,6.3,0,13.6,0,21.1H196v61.7h-6.6v-24.8h-2.8c-7.8,0-14,6.3-14,14c0,4.3,2,8.2,5.1,10.7H67.4V233.9z M410.5,509.2c0,23-18.6,41.6-41.6,41.6H109c-23,0-41.6-18.6-41.6-41.6V301.4H196v61.7h32.5v20c0,7.9,5.8,14.5,13.3,15.8l8.1-0.7c6.2-2.2,10.7-8.1,10.7-15.1v-20H293v-61.7h117.5V509.2z M368.9,192.3c23,0,41.6,18.6,41.6,41.6v41.2H309c3.1-2.6,5.1-6.4,5.1-10.7c0-7.8-6.3-14-14-14h-2.8v24.8H293v-61.7h-46.6c0-7.6,0-14.8,0-21.1L368.9,192.3L368.9,192.3z"/><path d="M941.5,485.5H701c-26.7,0-48.5,21.7-48.5,48.5v177.5l-0.5,0.3l0.5,0.9l-0.5-0.1v85.4l0.6,0.1v75.4c0,26.7,21.7,48.5,48.5,48.5h240.6c26.7,0,48.5-21.7,48.5-48.5V533.9C990,507.2,968.3,485.5,941.5,485.5z M821,911.3c-8.9,0-16.1-7.2-16.1-16.1c0-8.9,7.2-16.2,16.1-16.2c8.9,0,16.2,7.2,16.2,16.2C837.1,904.1,829.9,911.3,821,911.3z M957.7,849.2c0,8.9-7.2,16.1-16.1,16.1H701c-8.9,0-16.2-7.3-16.2-16.1V533.9c0-8.9,7.3-16.2,16.2-16.2h240.6c8.9,0,16.1,7.3,16.1,16.2V849.2L957.7,849.2z"/><path d="M861.4,576.1c-4.2,0-8.3-1.7-10-2.7l-1.9,6.3c2.4,1.5,6.9,3,12.3,3c10.9,0,17.1-5.9,17.1-13.3c0-5.9-4.3-10-9.6-10.9v-0.1c5.4-1.9,8.1-5.7,8.1-10.3c0-5.7-4.6-10.7-13.7-10.7c-5.3,0-10.1,1.6-12.6,3.4l1.8,6c1.8-1.2,5.4-2.8,9-2.8c4.8,0,7,2.5,7,5.5c0,4.4-4.8,6.1-8.7,6.1h-3.7v6.1h3.8c5.1,0,9.9,2.2,9.9,7.4C870.3,572.6,867.7,576.1,861.4,576.1z"/><path d="M909.6,528.6c-17.4,0-31.5,14.1-31.5,31.5c0,17.4,14.1,31.5,31.5,31.5c17.4,0,31.5-14.1,31.5-31.5C941.1,542.7,927,528.6,909.6,528.6z M924.6,576.3c-4.5,4.1-11.7,6.2-20.6,6.2c-4.9,0-8.5-0.3-11.2-0.6v-44.7c3.6-0.6,8.3-1,13.2-1c8.5,0,14.4,1.8,18.6,5.3c4.4,3.6,7.1,9,7.1,16.7C931.7,566.3,929,572.3,924.6,576.3z"/><path d="M906.8,542.7c-2.6,0-4.5,0.2-5.7,0.5v32.5c1.1,0.2,2.9,0.2,4.6,0.2c10.8,0.1,17.2-5.9,17.2-17.4C923,548.4,917.2,542.7,906.8,542.7z"/><path d="M640.6,462.5c4.7,0,8.5,3.8,8.5,8.5c0,4.7-3.8,8.5-8.5,8.5c-4.7,0-8.5-3.8-8.5-8.5C632.1,466.3,635.9,462.5,640.6,462.5z"/><path d="M648.4,404.6c-19.7-1.9-39.5,4.8-54.3,18.5c-14.9,13.7-23.3,32.8-23,52.6l8.2-0.1c-0.2-17.4,7.2-34.4,20.4-46.5c13.1-12.1,30.7-18.1,48-16.4L648.4,404.6z"/><path d="M646.9,435.1C635.4,434,623.8,438,615,446c-8.7,8-13.6,19.2-13.5,30.8l7.3-0.1c-0.1-9.5,3.9-18.8,11.1-25.4c7.2-6.6,16.7-9.9,26.2-8.9L646.9,435.1z"/><path d="M654.5,381.1l0.8-8.1c-29.6-2.8-59.4,7.3-81.7,27.8c-22.4,20.5-35,49.4-34.6,79.1l8.2-0.1c-0.3-27.4,11.3-54,32-73C599.8,387.9,627.2,378.5,654.5,381.1z"/><path d="M758.6,675.5l0.4,0.9l-0.5-0.1v85.4l70.6,16.7l54.3-29.9v-86.7L811,647.8L758.6,675.5z M825.6,773.2l-63.3-14.6v-77.7l63.3,13.6V773.2z M877.1,665.1l-48.1,26.4l-65.3-14.1l48-25.4L877.1,665.1z"/></g></g><g></g><g></g><g></g><g></g><g></g><g></g><g></g><g></g><g></g><g></g><g></g><g></g><g></g><g></g><g></g></g>
</svg>